# xmcd
#
# Track frame offsets:
#	180
#	14507
#	28196
#	43762
#	57712
#	76638
#	91317
#	105744
#	115556
#	126973
#	136760
#	147522
#	164160
#	175476
#	190238
#	197941
#	219507
#
# Disc length: 3151
#
# Revision: 2
# Processed by: cddbd v1.5.1PL0 Copyright (c) Steve Scherf et al.
# Submitted via: audiograbber 1.83.01
# Normalized: r1:DSETVAR1
#
DISCID=fc0c4d11
DTITLE=Various Artist - Country Love Songs Vol. 1
DYEAR=1900
DGENRE=Country
TTITLE0=M. Robbins - Devil Women
TTITLE1=C. De Wit - Don't Keep Over Your Love
TTITLE2=Neil Sedaka - Amarillo
TTITLE3=Dorset - Lady Rose
TTITLE4=Humperdinck - Please Release Me
TTITLE5=H. Howard - Why Not Me
TTITLE6=Don Everly - Let It Be Me
TTITLE7=W. Nelson - On The Road Again
TTITLE8=Dobbins - Stand By Your Man
TTITLE9=J. A. Boltrop - A Railroad Bum
TTITLE10=N. Miller - From A Jack To A King
TTITLE11=Jack De Nijs - Get Your Fun
TTITLE12=J. Reeves - Is It Really Over
TTITLE13=M. Haggard - Somewhere Between
TTITLE14=Tillotson - Heartaches By The Number
TTITLE15=John Denver - Sweet Surrender
TTITLE16=Greenfield - Together Again
EXTD=
EXTT0=
EXTT1=
EXTT2=
EXTT3=
EXTT4=
EXTT5=
EXTT6=
EXTT7=
EXTT8=
EXTT9=
EXTT10=
EXTT11=
EXTT12=
EXTT13=
EXTT14=
EXTT15=
EXTT16=
PLAYORDER=
